<?xml version="1.0" encoding="UTF-8"?>
<!-- Created with Inkscape (http://www.inkscape.org/) -->
<svg width="203.45mm" height="60.18mm" version="1.1" viewBox="0 0 203.45 60.18" xmlns="http://www.w3.org/2000/svg">
 <g transform="translate(-50.536 -113.32)">
  <g transform="matrix(.26458 0 0 .26458 -274.13 45.256)" fill="#333">
   <path d="m1227.1 333.33c0-42.163 33.907-76.069 76.069-76.069 32.432 0 59.852 20.345 70.172 48.649h-30.959c-8.256-12.384-22.113-20.639-38.919-20.639-27.125 0-47.469 21.228-47.469 48.059s20.639 48.059 47.469 48.059c16.511 0 30.073-7.96 38.329-20.049h31.548c-10.615 28.305-38.035 48.06-70.172 48.06-42.163 0-76.069-33.907-76.069-76.069"/>
   <path d="m1507.4 320.36c-5.3067-20.049-22.997-35.085-44.227-35.085-22.997 0-39.508 15.036-44.815 35.085zm-45.111-63.096c38.035 0 74.595 27.715 76.069 73.415 0 5.0133-0.2947 9.4347-0.884 13.268h-119.12c2.3573 21.819 20.049 37.445 43.931 37.445 16.216 0 27.715-6.4867 35.381-14.743l34.496 0.29466c-12.679 25.357-39.213 42.457-68.993 42.457-42.457 0-75.773-33.907-75.773-75.773 0-41.573 32.432-76.364 74.889-76.364"/>
   <path d="m1695.8 257.26v72.351c0 54.735-29.973 79.821-71.675 79.821-41.701 0-71.676-25.087-71.676-79.821v-72.351h31.929v72.351c0 33.232 14.335 48.869 39.747 48.869s39.747-15.637 39.747-48.869v-72.351z"/>
   <path d="m1835.2 333.37c0-26.831-20.049-48.06-47.175-48.06-26.831 0-47.175 21.229-47.175 48.06 0 26.829 20.639 48.059 47.175 48.059 26.829 0 47.175-21.229 47.175-48.059m-47.175-76.069c41.868 0 76.068 33.907 76.068 76.069 0 42.161-34.2 76.069-76.068 76.069-19.755 0-35.676-8.2573-46.585-21.229v96.505h-29.189v-151.35c0-42.163 33.907-76.069 75.775-76.069"/>
   <path d="m1866.1 257.26h33.553l31.295 79.372 31.545-79.372h33.553l-66.224 152z"/>
  </g>
 </g>
</svg>
